<svg id="Vrstva_1" data-name="Vrstva 1" xmlns="http://www.w3.org/2000/svg" viewBox="0 0 1523.33 130.23"><defs><style>.cls-1{fill:#be9859;}</style></defs><path class="cls-1" d="M0,0,49.61,130.23h1.53L1.52,0ZM35.91,0,85.52,130.23h1.54L37.43,0ZM71.83,0l49.6,130.23H123L73.34,0Zm35.91,0,49.61,130.23h1.53L109.25,0Zm35.91,0,49.61,130.23h1.54L145.17,0Zm35.91,0,49.61,130.23h1.54L181.08,0Zm35.92,0,49.6,130.23h1.54L217,0Zm36.07,0,49.61,130.23h1.54L253.07,0Zm35.91,0,49.61,130.23h1.54L289,0Zm35.92,0L373,130.23h1.54L324.89,0Zm35.91,0L408.9,130.23h1.54L360.8,0ZM395.2,0l49.61,130.23h1.54L396.72,0Zm35.92,0,49.6,130.23h1.54L432.63,0ZM467,0l49.61,130.23h1.53L468.55,0Z"/><path class="cls-1" d="M499.61,0l49.6,130.23h1.54L501.12,0Zm35.91,0,49.61,130.23h1.53L537,0Zm35.91,0L621,130.23h1.54L572.94,0Zm35.92,0L657,130.23h1.54L608.86,0Zm35.91,0,49.61,130.23h1.53L644.77,0Zm35.91,0,49.61,130.23h1.54L680.69,0Zm35.91,0,49.61,130.23h1.54L716.6,0Zm36.08,0,49.61,130.23h1.53L752.67,0Zm35.91,0,49.61,130.23h1.54L788.58,0ZM823,0l49.61,130.23h1.54L824.5,0ZM858.9,0l49.6,130.23H910L860.41,0Zm35.91,0,49.61,130.23H946L896.32,0Zm35.91,0,49.61,130.23h1.54L932.24,0Zm35.92,0,49.6,130.23h1.54L968.15,0Z"/><path class="cls-1" d="M1005.16,0l49.61,130.23h1.53L1006.68,0Zm35.91,0,49.61,130.23h1.54L1042.59,0ZM1077,0l49.61,130.23h1.54L1078.5,0Zm35.92,0,49.6,130.23H1164L1114.41,0Zm35.91,0,49.61,130.23H1200L1150.33,0Zm35.91,0,49.61,130.23h1.54L1186.24,0Zm35.92,0,49.6,130.23h1.54L1222.15,0Zm36.07,0,49.61,130.23h1.53L1258.23,0Zm35.91,0,49.61,130.23h1.54L1294.14,0Zm35.92,0,49.6,130.23h1.54L1330.05,0Zm35.91,0,49.61,130.23h1.54L1366,0Zm35.91,0L1450,130.23h1.54L1401.88,0Zm35.91,0,49.61,130.23h1.54L1437.79,0Zm35.92,0,49.6,130.23h1.54L1473.7,0Z"/></svg>