<?xml version="1.0" encoding="utf-8"?>
<!-- Generator: Adobe Illustrator 25.0.1, SVG Export Plug-In . SVG Version: 6.00 Build 0)  -->
<svg version="1.1" id="Vrstva_1" xmlns="http://www.w3.org/2000/svg" xmlns:xlink="http://www.w3.org/1999/xlink" x="0px" y="0px"
	 viewBox="0 0 518.2 130.2" style="enable-background:new 0 0 518.2 130.2;" xml:space="preserve">
<style type="text/css">
	.st0{fill:#BE9859;}
</style>
<path class="st0" d="M0,0l49.6,130.2h1.5L1.5,0H0z M35.9,0l49.6,130.2h1.5L37.4,0H35.9z M71.8,0l49.6,130.2h1.5L73.3,0H71.8z
	 M107.7,0l49.6,130.2h1.5L109.3,0H107.7z M143.7,0l49.6,130.2h1.5L145.2,0H143.7z M179.6,0l49.6,130.2h1.5L181.1,0H179.6z M215.5,0
	l49.6,130.2h1.5L217,0H215.5z M251.6,0l49.6,130.2h1.5L253.1,0H251.6z M287.5,0l49.6,130.2h1.5L289,0H287.5z M323.4,0L373,130.2h1.5
	L324.9,0H323.4z M359.3,0l49.6,130.2h1.5L360.8,0H359.3z M395.2,0l49.6,130.2h1.5L396.7,0H395.2z M431.1,0l49.6,130.2h1.5L432.6,0
	H431.1z M467,0l49.6,130.2h1.5L468.5,0H467z"/>
</svg>
