<svg id="Vrstva_1" data-name="Vrstva 1" xmlns="http://www.w3.org/2000/svg" viewBox="0 0 566.93 566.93"><defs><style>.cls-1{fill:#be9859;}</style></defs><path class="cls-1" d="M24.38,218.35,74,348.58h1.54L25.89,218.35Zm35.91,0L109.9,348.58h1.54L61.81,218.35Zm35.91,0,49.61,130.23h1.54L97.72,218.35Zm35.92,0,49.6,130.23h1.54L133.63,218.35Zm35.91,0,49.61,130.23h1.54L169.54,218.35Zm35.91,0,49.61,130.23h1.54L205.46,218.35Zm35.92,0,49.6,130.23H291L241.37,218.35Zm36.07,0,49.61,130.23h1.53L277.44,218.35Zm35.91,0,49.61,130.23H363L313.36,218.35Zm35.92,0,49.6,130.23h1.54L349.27,218.35Zm35.91,0,49.6,130.23h1.55L385.18,218.35Zm35.91,0,49.61,130.23h1.54L421.1,218.35Zm35.91,0L505.1,348.58h1.54L457,218.35Zm35.92,0L541,348.58h1.54L492.92,218.35Z"/></svg>