<?xml version="1.0" encoding="utf-8"?>
<!-- Generator: Adobe Illustrator 23.0.1, SVG Export Plug-In . SVG Version: 6.00 Build 0)  -->
<svg version="1.1" id="Layer_1" xmlns="http://www.w3.org/2000/svg" xmlns:xlink="http://www.w3.org/1999/xlink" x="0px" y="0px"
	 viewBox="0 0 209.9 207.4" style="enable-background:new 0 0 209.9 207.4;" xml:space="preserve">
<style type="text/css">
	.st0{fill:#887F61;}
</style>
<g>
	<g>
		<g>
			<polygon class="st0" points="73.8,30.3 132.1,183.3 133.9,183.3 75.6,30.3 			"/>
		</g>
		<g>
			<g>
				<g>
					<g>
						<path class="st0" d="M15.3,143.3h12v-73h-12v-2h18.9c1.1,0,2.2,0,3.3-0.1c1.1,0,2.3-0.1,3.4-0.2c1.1,0,2.3,0,3.3-0.1
							c1.1,0,2.1,0,3.1,0c5.2,0,9.6,0.6,13,1.9c3.4,1.2,6,2.8,8,4.6c1.9,1.8,3.3,3.8,4,5.9c0.7,2.1,1.1,4,1.1,5.7
							c0,2.4-0.5,4.5-1.6,6.5c-1,2-2.4,3.7-4.2,5.2c-1.8,1.5-3.8,2.7-6.1,3.6c-2.3,0.9-4.7,1.5-7.2,1.8v0.2c2.6,0.2,5.2,0.8,7.9,1.6
							c2.7,0.9,5.1,2.2,7.3,3.8c2.2,1.6,4,3.6,5.3,5.9c1.4,2.3,2,5,2,8.1c0,3.2-0.6,6.1-1.8,8.8c-1.2,2.7-3.1,5-5.5,6.9
							c-2.4,1.9-5.5,3.4-9.3,4.5c-3.7,1.1-8.1,1.7-13.1,1.7c-1,0-2,0-3-0.1c-1,0-2-0.1-3.1-0.2c-1.1-0.1-2.2-0.1-3.3-0.2
							c-1.2,0-2.4,0-3.7,0H15.3V143.3z M38.3,103.3h9.8c2,0,3.8-0.2,5.4-0.8c1.6-0.5,3-1.4,4.2-2.6c1.2-1.2,2.1-2.9,2.7-5.1
							c0.6-2.1,1-4.8,1-8.1c0-3.7-0.5-6.7-1.4-8.9c-1-2.2-2.2-3.9-3.8-5.1c-1.5-1.1-3.2-1.9-5.1-2.3c-1.9-0.4-3.8-0.5-5.6-0.5
							c-1.3,0-2.6,0-3.9,0.1c-1.3,0-2.4,0.1-3.4,0.3V103.3z M38.3,142.8c0.9,0.1,1.8,0.2,2.8,0.3c1,0.1,2.5,0.2,4.4,0.2
							c3.3,0,6.2-0.3,8.6-1c2.4-0.7,4.3-1.8,5.9-3.4c1.5-1.6,2.6-3.7,3.3-6.3c0.7-2.6,1.1-6,1.1-9.9c0-5.7-1.2-10.2-3.6-13.5
							c-2.4-3.3-6-4.9-10.8-4.9H38.3V142.8z"/>
					</g>
				</g>
				<g>
					<g>
						<path class="st0" d="M115.3,68.3h33v1h-12.1l23.7,62.1l23.4-62.1h-11.9v-1h23v1h-9.6l-28.7,76h-2.7l-29-76h-9.1V68.3z"/>
					</g>
				</g>
			</g>
		</g>
	</g>
</g>
<g>
</g>
<g>
</g>
<g>
</g>
<g>
</g>
<g>
</g>
<g>
</g>
</svg>
