<svg id="Vrstva_1" data-name="Vrstva 1" xmlns="http://www.w3.org/2000/svg" viewBox="0 0 283.46 113.39"><defs><style>.cls-1{fill:#231f20;}</style></defs><title>Kreslicí plátno 1</title><polygon class="cls-1" points="54.96 18.78 83.84 94.61 84.74 94.61 55.84 18.78 54.96 18.78"/><path class="cls-1" d="M26.31,74.44h5.87V38.32H26.31v-.74h9.24l1.61,0c.55,0,1.11,0,1.67-.08s1.11,0,1.63,0l1.54,0a18.38,18.38,0,0,1,6.34.93,11.46,11.46,0,0,1,3.9,2.26,7.32,7.32,0,0,1,2,2.91,8.92,8.92,0,0,1,.52,2.82A7,7,0,0,1,54,49.57a8.54,8.54,0,0,1-2.06,2.58,10.63,10.63,0,0,1-3,1.8,13.64,13.64,0,0,1-3.54.9V55a17,17,0,0,1,3.88.82,13.27,13.27,0,0,1,3.59,1.85,9.55,9.55,0,0,1,2.62,2.93,8,8,0,0,1,1,4,10.56,10.56,0,0,1-.9,4.36,9.11,9.11,0,0,1-2.69,3.41,13.29,13.29,0,0,1-4.54,2.24A22.31,22.31,0,0,1,42,75.4c-.5,0-1,0-1.46,0L39,75.29c-.53,0-1.08-.07-1.64-.09l-1.8,0H26.31Zm11.14-19.8h4.87A9.11,9.11,0,0,0,45,54.27,4.68,4.68,0,0,0,47.09,53a6.18,6.18,0,0,0,1.35-2.51,14.09,14.09,0,0,0,.48-4A11.48,11.48,0,0,0,48.21,42a6.05,6.05,0,0,0-1.86-2.51,6.13,6.13,0,0,0-2.53-1.11,15.44,15.44,0,0,0-2.77-.26l-1.93,0a12.47,12.47,0,0,0-1.67.13Zm0,19.8,1.41.13c.51.05,1.24.08,2.19.08a16.91,16.91,0,0,0,4.25-.47,6.29,6.29,0,0,0,2.91-1.67,7.18,7.18,0,0,0,1.65-3.14,18.78,18.78,0,0,0,.54-4.91,11,11,0,0,0-1.8-6.66,6.22,6.22,0,0,0-5.34-2.42H37.45Z"/><polygon class="cls-1" points="75.34 37.37 91.67 37.37 91.67 38.11 85.8 38.11 97.53 68.74 109.1 38.11 103.34 38.11 103.34 37.37 114.74 37.37 114.74 38.11 110 38.11 95.79 75.77 94.47 75.77 80.1 38.11 75.34 38.11 75.34 37.37"/><path class="cls-1" d="M122.06,60h8.71v.51h-3l4.64,11.3,4.83-11.3h-3V60h5.48v.51h-1.95l-6.8,16.13-6.55-16.13h-2.45Z"/><path class="cls-1" d="M141,74.89h2.77V60.46H141V60h5.87V74.89h2.77v.51H141Zm2.34-23.33a1.89,1.89,0,0,1,1.91-1.9,1.89,1.89,0,0,1,1.91,1.9,1.91,1.91,0,0,1-1.91,1.91,1.91,1.91,0,0,1-1.91-1.91Z"/><path class="cls-1" d="M151.2,74.89H154V60.46H151.2V60H157V63.8h.07c.14-.31.35-.7.63-1.18a6.47,6.47,0,0,1,1.13-1.41,6.67,6.67,0,0,1,1.8-1.17,6.47,6.47,0,0,1,2.63-.48,6.12,6.12,0,0,1,3.87,1.15,4.34,4.34,0,0,1,1.5,3.67V74.89h2.77v.51h-8.64v-.51h2.77V63.26a3.73,3.73,0,0,0-.67-2.3,2.4,2.4,0,0,0-2.07-.9,5,5,0,0,0-2.19.5A5.84,5.84,0,0,0,158.76,62a6.66,6.66,0,0,0-1.24,2.12,7.71,7.71,0,0,0-.45,2.67v8.13h2.77v.51H151.2Z"/><path class="cls-1" d="M188.42,75a4.89,4.89,0,0,1-1.11.63,4.16,4.16,0,0,1-1.59.27,3.56,3.56,0,0,1-2.5-.74,3.86,3.86,0,0,1-1.06-2.07h-.07c-.1.22-.23.49-.4.81a3.29,3.29,0,0,1-.77.94,4.23,4.23,0,0,1-1.39.75,6.54,6.54,0,0,1-2.2.31,6.93,6.93,0,0,1-2.41-.34,3.84,3.84,0,0,1-1.4-.85,2.4,2.4,0,0,1-.67-1.13,4.62,4.62,0,0,1-.16-1.17,3.66,3.66,0,0,1,.5-2,3.81,3.81,0,0,1,1.32-1.2,8.59,8.59,0,0,1,1.8-.74c.66-.19,1.32-.4,2-.61l2-.69a3.34,3.34,0,0,0,1.2-.7,2.17,2.17,0,0,0,.6-1,7.07,7.07,0,0,0,.16-1.71,10.16,10.16,0,0,0-.11-1.55,3.23,3.23,0,0,0-.39-1.17,1.87,1.87,0,0,0-.83-.74,3.42,3.42,0,0,0-1.44-.25,4.19,4.19,0,0,0-2,.41,1.42,1.42,0,0,0-.78,1.35,7,7,0,0,0,.11,1.21,5.7,5.7,0,0,1,.11.88,1.13,1.13,0,0,1-.36.85,1.46,1.46,0,0,1-1.05.34c-.79,0-1.28-.15-1.47-.43a2,2,0,0,1-.29-1.12,3.32,3.32,0,0,1,.36-1.51,3.77,3.77,0,0,1,1.06-1.28,5.24,5.24,0,0,1,1.77-.88,8.12,8.12,0,0,1,2.43-.33,8,8,0,0,1,2.77.42A4.88,4.88,0,0,1,184,61a4.12,4.12,0,0,1,1,1.59,6,6,0,0,1,.29,1.85v9a2.22,2.22,0,0,0,.32,1.4,1.21,1.21,0,0,0,.94.36,2.83,2.83,0,0,0,.83-.14,3,3,0,0,0,.82-.44Zm-6.3-8.42h-.07c-.05.31-.44.62-1.19.93l-2.7,1.08a3.88,3.88,0,0,0-1.76,1.32,3.46,3.46,0,0,0-.61,2.1,6.21,6.21,0,0,0,.1,1.12,3.06,3.06,0,0,0,.4,1,2.08,2.08,0,0,0,.81.74,2.7,2.7,0,0,0,1.35.29,3.43,3.43,0,0,0,1.93-.5,3.34,3.34,0,0,0,1.11-1.26,5.6,5.6,0,0,0,.51-1.64,12,12,0,0,0,.12-1.6Z"/><polygon class="cls-1" points="196.92 55.52 194.91 55.52 190.84 49.51 191.34 49.51 195.92 53.29 200.49 49.51 200.99 49.51 196.92 55.52"/><path class="cls-1" d="M189.21,74.89H192V60.46h-2.77V60H195v3.64h.07a6.71,6.71,0,0,1,.47-1.23A5.33,5.33,0,0,1,197.83,60a4.11,4.11,0,0,1,2-.43,3.52,3.52,0,0,1,1.44.27,3,3,0,0,1,1,.68,2.47,2.47,0,0,1,.58,1,3.4,3.4,0,0,1,.18,1.08,1.88,1.88,0,0,1-.54,1.59,2.1,2.1,0,0,1-1.26.39c-1.06,0-1.59-.33-1.59-1a1.56,1.56,0,0,1,.08-.53,3.2,3.2,0,0,1,.16-.39,3.33,3.33,0,0,0,.16-.45,2.71,2.71,0,0,0,.07-.72c0-.77-.42-1.15-1.26-1.15a2.21,2.21,0,0,0-1.22.43A4.58,4.58,0,0,0,196.39,62a7.9,7.9,0,0,0-.93,2,8.46,8.46,0,0,0-.38,2.68v8.24h3.13v.51h-9Z"/><path class="cls-1" d="M204.61,70.36h.4a13.28,13.28,0,0,0,.65,1.74,6.12,6.12,0,0,0,1.06,1.62,5.19,5.19,0,0,0,1.64,1.21,5.39,5.39,0,0,0,2.34.47,3.23,3.23,0,0,0,2.05-.71,2.71,2.71,0,0,0,.9-2.28,2.33,2.33,0,0,0-.7-1.93,5.72,5.72,0,0,0-1.64-.88l-2.81-1q-.54-.18-1.17-.45a4.12,4.12,0,0,1-1.17-.76,3.7,3.7,0,0,1-.88-1.24,4.69,4.69,0,0,1-.34-1.94,4.52,4.52,0,0,1,.39-1.88,5.08,5.08,0,0,1,1.08-1.51,5.14,5.14,0,0,1,1.64-1,5.85,5.85,0,0,1,2.07-.36,5.42,5.42,0,0,1,1.28.13l.85.25.64.25a1.63,1.63,0,0,0,.69.13.63.63,0,0,0,.57-.29h.4v4.11h-.4a14.62,14.62,0,0,0-.57-1.53,6.56,6.56,0,0,0-.78-1.32,3.24,3.24,0,0,0-1.11-.9,3.67,3.67,0,0,0-1.57-.32,4.19,4.19,0,0,0-2.68.77,2.53,2.53,0,0,0-.95,2.07,2,2,0,0,0,.81,1.75,8.68,8.68,0,0,0,2.39,1.1l2.63.86a7.52,7.52,0,0,1,2.77,1.58,3.49,3.49,0,0,1,1.08,2.67,5.12,5.12,0,0,1-.38,1.91,4.67,4.67,0,0,1-1.11,1.64,6.06,6.06,0,0,1-1.8,1.13,6.38,6.38,0,0,1-2.43.43,6,6,0,0,1-1.46-.16c-.45-.11-.85-.22-1.23-.34l-1-.35a2.87,2.87,0,0,0-.87-.16.88.88,0,0,0-.57.16,1.54,1.54,0,0,0-.29.35h-.4Z"/><path class="cls-1" d="M217.34,60h2.77V55.31l.54.18a3.5,3.5,0,0,0,.86.07,2.92,2.92,0,0,0,.94-.13,2.36,2.36,0,0,0,.76-.41V60h5.11v.51h-5.11V72.23a5.72,5.72,0,0,0,.19,1.64,2.54,2.54,0,0,0,.53,1,1.5,1.5,0,0,0,.7.45,2.76,2.76,0,0,0,.74.11,2.54,2.54,0,0,0,2-.92,4.39,4.39,0,0,0,1-2.11l.5.18a9.17,9.17,0,0,1-.32,1,3.62,3.62,0,0,1-1.84,2,4.16,4.16,0,0,1-1.8.34c-1.8,0-3.05-.35-3.76-1a4,4,0,0,1-1.06-3V60.46h-2.77Z"/><path class="cls-1" d="M228.06,60h8.72v.51h-2.95l4.64,11.3,4.82-11.3h-2.95V60h5.47v.51h-1.94l-6.81,16.13-6.55-16.13h-2.45Z"/><path class="cls-1" d="M247,74.89h2.77V60.46H247V60h5.86V74.89h2.78v.51H247Zm7.05-24.55a12.76,12.76,0,0,1,1-1.15,1.13,1.13,0,0,1,.81-.29,1.16,1.16,0,0,1,.86.38,1.22,1.22,0,0,1,.36.88.81.81,0,0,1-.23.61,5.18,5.18,0,0,1-.42.36l-6.15,4.39h-.51Z"/></svg>